<?xml version="1.0" standalone="no"?><!DOCTYPE svg PUBLIC "-//W3C//DTD SVG 1.1//EN" "http://www.w3.org/Graphics/SVG/1.1/DTD/svg11.dtd"><svg t="1657701815936" class="icon" viewBox="0 0 1024 1024" version="1.1" xmlns="http://www.w3.org/2000/svg" p-id="6597" xmlns:xlink="http://www.w3.org/1999/xlink" width="32" height="32"><defs><style type="text/css"></style></defs><path d="M635.328 736a32 32 0 0 0-32-32H96V352h507.2a32 32 0 1 0 0-64H64a32 32 0 0 0-32 32v416a32 32 0 0 0 32 32h539.328a32 32 0 0 0 32-32zM960 288h-92.928a32 32 0 1 0 0 64H928v352h-60.288a32 32 0 1 0 0 64H960a32 32 0 0 0 32-32V320a32 32 0 0 0-32-32z" p-id="6598"></path><path d="M832.672 848H768v-640h64.288a32 32 0 1 0 0-64H639.36a32 32 0 1 0 0 64H704v640h-64.64a32 32 0 1 0 0 64h193.28a32 32 0 1 0 0.032-64z" p-id="6599"></path></svg>